<?xml version="1.0" encoding="UTF-8"?>
<svg id="_レイヤー_1" data-name="レイヤー 1" xmlns="http://www.w3.org/2000/svg" viewBox="0 0 324.26 63.83">
  <defs>
    <style>
      .cls-1 {
        fill: #fff;
      }
    </style>
  </defs>
  <g>
    <rect class="cls-1" x="222.06" y="25.11" width="2.84" height="21.27"/>
    <rect class="cls-1" x="226.5" y="26.7" width="2.84" height="12.32" transform="translate(43.52 170.78) rotate(-45)"/>
    <rect class="cls-1" x="226.73" y="35.69" width="2.84" height="11.67" transform="translate(37.46 173.48) rotate(-45)"/>
    <rect class="cls-1" x="221.14" y="17.46" width="4.67" height="4.67" transform="translate(79.45 -152.22) rotate(45)"/>
  </g>
  <g>
    <path class="cls-1" d="M246.66,46.38h-2.84v-29.33l2.43-1,11.85,11.85-1.01,2.43-10.42-.02v16.08ZM246.66,27.45h6.99s-6.99-6.98-6.99-6.98v6.98Z"/>
    <polygon class="cls-1" points="247.47 19.2 243.81 19.2 243.81 16.03 246.23 16.03 247.47 19.2"/>
    <rect class="cls-1" x="249.83" y="27.5" width="2.84" height="12.1" transform="translate(49.87 187.49) rotate(-45)"/>
    <rect class="cls-1" x="252.22" y="40.74" width="4.67" height="4.67" transform="translate(105.02 -167.38) rotate(45)"/>
  </g>
  <g>
    <rect class="cls-1" x="81.85" y="16.68" width="2.84" height="29.7"/>
    <rect class="cls-1" x="66.17" y="16.68" width="2.84" height="29.7"/>
    <rect class="cls-1" x="64.83" y="23.78" width="21.2" height="2.84" transform="translate(4.27 60.72) rotate(-45)"/>
    <rect class="cls-1" x="74.01" y="14.6" width="2.84" height="21.2" transform="translate(4.27 60.71) rotate(-45)"/>
  </g>
  <g>
    <rect class="cls-1" x="137.64" y="16.68" width="2.84" height="29.7"/>
    <rect class="cls-1" x="133.88" y="38.49" width="15.03" height="2.84"/>
  </g>
  <g>
    <rect class="cls-1" x="96.84" y="16.68" width="2.84" height="29.7"/>
    <rect class="cls-1" x="93.08" y="38.49" width="15.03" height="2.84"/>
  </g>
  <g>
    <rect class="cls-1" x="121.04" y="30.33" width="4.67" height="4.67" transform="translate(59.23 -77.67) rotate(45)"/>
    <polygon class="cls-1" points="126.54 47.38 111.77 32.61 126.67 17.7 128.68 19.71 115.79 32.61 128.55 45.37 126.54 47.38"/>
  </g>
  <g>
    <rect class="cls-1" x="157.2" y="16.68" width="2.84" height="29.7"/>
    <rect class="cls-1" x="162.33" y="15.67" width="2.84" height="13.74" transform="translate(32.02 122.39) rotate(-45)"/>
  </g>
  <g>
    <rect class="cls-1" x="174.22" y="16.68" width="2.84" height="29.7"/>
    <rect class="cls-1" x="179.36" y="15.67" width="2.84" height="13.74" transform="translate(37.01 134.43) rotate(-45)"/>
  </g>
  <g>
    <rect class="cls-1" x="202.83" y="31.07" width="4.67" height="4.67" transform="translate(83.71 -135.29) rotate(45)"/>
    <rect class="cls-1" x="191.45" y="18.75" width="18.12" height="2.84"/>
    <rect class="cls-1" x="191.45" y="44.96" width="18.12" height="2.84"/>
    <polygon class="cls-1" points="207.47 47.13 193.74 33.41 207.55 19.6 209.56 21.61 197.76 33.41 209.48 45.12 207.47 47.13"/>
  </g>
</svg>