<?xml version="1.0" encoding="UTF-8"?>
<svg id="_レイヤー_1" data-name="レイヤー 1" xmlns="http://www.w3.org/2000/svg" viewBox="0 0 301.43 63.83">
  <defs>
    <style>
      .cls-1 {
        fill: #fff;
      }
    </style>
  </defs>
  <g>
    <path class="cls-1" d="M66.11,50.4h3.77c3.62,0,6.56-2.94,6.56-6.56v-.26c0-3.62-2.94-6.56-6.56-6.56h-20.84c-.86,0-1.56-.7-1.56-1.56s.7-1.56,1.56-1.56h20.84c3.62,0,6.56-2.94,6.56-6.56v-.65c0-3.62-2.94-6.56-6.56-6.56h-11.55c-.86,0-1.56-.7-1.56-1.56v-5.48h-5v5.48c0,3.62,2.94,6.56,6.56,6.56h11.55c.86,0,1.56.7,1.56,1.56v.65c0,.86-.7,1.56-1.56,1.56h-20.84c-3.62,0-6.56,2.94-6.56,6.56s2.94,6.56,6.56,6.56h20.84c.86,0,1.56.7,1.56,1.56v.26c0,.86-.7,1.56-1.56,1.56h-3.77v5Z"/>
    <circle class="cls-1" cx="60.96" cy="48.14" r="3.34"/>
  </g>
  <g>
    <path class="cls-1" d="M269.67,50.4h3.77c3.62,0,6.56-2.94,6.56-6.56v-.26c0-3.62-2.94-6.56-6.56-6.56h-20.84c-.86,0-1.56-.7-1.56-1.56s.7-1.56,1.56-1.56h20.84c3.62,0,6.56-2.94,6.56-6.56v-.65c0-3.62-2.94-6.56-6.56-6.56h-11.55c-.86,0-1.56-.7-1.56-1.56v-5.48h-5v5.48c0,3.62,2.94,6.56,6.56,6.56h11.55c.86,0,1.56.7,1.56,1.56v.65c0,.86-.7,1.56-1.56,1.56h-20.84c-3.62,0-6.56,2.94-6.56,6.56s2.94,6.56,6.56,6.56h20.84c.86,0,1.56.7,1.56,1.56v.26c0,.86-.7,1.56-1.56,1.56h-3.77v5Z"/>
    <circle class="cls-1" cx="264.53" cy="48.14" r="3.34"/>
  </g>
  <polygon class="cls-1" points="237.3 51.48 242.3 51.48 242.3 30.67 233.84 34.49 235.9 39.04 237.3 38.41 237.3 51.48"/>
  <g>
    <circle class="cls-1" cx="93.15" cy="37.48" r="3.34"/>
    <path class="cls-1" d="M93.15,50.8c7.35,0,13.33-5.98,13.33-13.33s-5.98-13.33-13.33-13.33-13.33,5.98-13.33,13.33,5.98,13.33,13.33,13.33ZM93.15,29.15c4.59,0,8.33,3.74,8.33,8.33s-3.74,8.33-8.33,8.33-8.33-3.74-8.33-8.33,3.74-8.33,8.33-8.33Z"/>
  </g>
  <g>
    <circle class="cls-1" cx="205.73" cy="13.2" r="3.34"/>
    <path class="cls-1" d="M216.93,38.53c6.38,0,11.56-5.19,11.56-11.56s-5.19-11.57-11.56-11.57-11.57,5.19-11.57,11.57,5.19,11.56,11.57,11.56ZM216.93,20.4c3.62,0,6.56,2.95,6.56,6.57s-2.94,6.56-6.56,6.56-6.57-2.94-6.57-6.56,2.95-6.57,6.57-6.57Z"/>
    <path class="cls-1" d="M216.93,53.98c7.26,0,13.16-5.9,13.16-13.16,0-3.82-1.65-7.44-4.54-9.94l-3.28,3.78c1.79,1.55,2.81,3.8,2.81,6.16,0,4.5-3.66,8.16-8.16,8.16s-8.16-3.66-8.16-8.16,3.66-8.16,8.16-8.16v-5c-7.26,0-13.16,5.9-13.16,13.16s5.9,13.16,13.16,13.16Z"/>
  </g>
  <g>
    <circle class="cls-1" cx="195.47" cy="47.68" r="3.8"/>
    <circle class="cls-1" cx="178.34" cy="26.68" r="3.8"/>
    <rect class="cls-1" x="171.21" y="34.7" width="31.48" height="5" transform="translate(28.45 143.09) rotate(-45)"/>
  </g>
  <g>
    <circle class="cls-1" cx="159.62" cy="17.39" r="3.34"/>
    <rect class="cls-1" x="150.04" y="14.06" width="5" height="37.42"/>
    <path class="cls-1" d="M153.96,47.95c7.46,0,13.53-6.07,13.53-13.53s-6.07-13.53-13.53-13.53v5c4.71,0,8.53,3.83,8.53,8.53s-3.83,8.53-8.53,8.53c-3.48,0-6.68-2.18-7.95-5.42l-4.66,1.82c2.01,5.14,7.08,8.6,12.6,8.6Z"/>
  </g>
  <polygon class="cls-1" points="127.66 50.98 135.29 50.98 135.29 45.98 132.66 45.98 132.66 12.01 124.74 12.01 124.74 17.01 127.66 17.01 127.66 50.98"/>
  <polygon class="cls-1" points="111.74 50.98 119.37 50.98 119.37 45.98 116.74 45.98 116.74 12.01 108.82 12.01 108.82 17.01 111.74 17.01 111.74 50.98"/>
  <polygon class="cls-1" points="21.42 50.98 36.6 50.98 36.6 23.51 31.6 23.51 31.6 45.98 21.42 45.98 21.42 50.98"/>
</svg>