<?xml version="1.0" encoding="UTF-8"?>
<svg id="_レイヤー_1" data-name="レイヤー 1" xmlns="http://www.w3.org/2000/svg" viewBox="0 0 324.26 63.83">
  <defs>
    <style>
      .cls-1 {
        fill: #fff;
      }
    </style>
  </defs>
  <g>
    <rect class="cls-1" x="235.6" y="25.09" width="2.84" height="21.27"/>
    <rect class="cls-1" x="240.05" y="26.68" width="2.84" height="12.32" transform="translate(47.51 180.37) rotate(-45)"/>
    <rect class="cls-1" x="240.28" y="35.66" width="2.84" height="11.67" transform="translate(41.45 183.07) rotate(-45)"/>
    <rect class="cls-1" x="234.69" y="17.44" width="4.67" height="4.67" transform="translate(83.4 -161.81) rotate(45)"/>
  </g>
  <g>
    <rect class="cls-1" x="213.35" y="16.66" width="2.84" height="29.7"/>
    <rect class="cls-1" x="213.9" y="19.04" width="2.84" height="23.33" transform="translate(41.36 161.25) rotate(-45)"/>
  </g>
  <g>
    <rect class="cls-1" x="103.61" y="16.66" width="2.84" height="29.7"/>
    <rect class="cls-1" x="104.16" y="19.04" width="2.84" height="23.33" transform="translate(9.21 83.65) rotate(-45)"/>
  </g>
  <g>
    <polygon class="cls-1" points="132.37 36.18 130.36 34.17 135.12 29.41 125.65 19.94 127.66 17.93 139.14 29.41 132.37 36.18"/>
    <polygon class="cls-1" points="134.62 47.36 121.52 34.26 128.75 27.03 130.76 29.04 125.54 34.26 136.63 45.35 134.62 47.36"/>
  </g>
  <g>
    <path class="cls-1" d="M159.77,45.56c-7.14,0-12.95-5.81-12.95-12.95s5.81-12.95,12.95-12.95,12.95,5.81,12.95,12.95-5.81,12.95-12.95,12.95ZM159.77,22.51c-5.57,0-10.11,4.53-10.11,10.11s4.53,10.11,10.11,10.11,10.11-4.53,10.11-10.11-4.53-10.11-10.11-10.11Z"/>
    <rect class="cls-1" x="143.88" y="30.81" width="32.42" height="2.84" transform="translate(53.43 155.89) rotate(-60.61)"/>
  </g>
  <g>
    <rect class="cls-1" x="78.43" y="30.25" width="4.67" height="4.67" transform="translate(46.69 -47.56) rotate(45)"/>
    <rect class="cls-1" x="84.06" y="30.25" width="4.67" height="4.67" transform="translate(48.34 -51.55) rotate(45)"/>
    <rect class="cls-1" x="77.89" y="22.03" width="12.35" height="2.84" transform="translate(8.04 66.31) rotate(-45)"/>
    <rect class="cls-1" x="76.63" y="40.57" width="12.35" height="2.84" transform="translate(-5.44 70.85) rotate(-45)"/>
  </g>
  <g>
    <rect class="cls-1" x="185.24" y="16.47" width="2.84" height="29.88"/>
    <rect class="cls-1" x="184.97" y="23.66" width="12.67" height="2.84" transform="translate(38.3 142.62) rotate(-45)"/>
    <rect class="cls-1" x="185.38" y="32.01" width="12.19" height="2.84" transform="translate(32.44 145.19) rotate(-45)"/>
  </g>
</svg>