<?xml version="1.0" encoding="UTF-8"?>
<svg id="_レイヤー_1" data-name="レイヤー 1" xmlns="http://www.w3.org/2000/svg" viewBox="0 0 324.26 63.83">
  <defs>
    <style>
      .cls-1 {
        fill: #fff;
      }
    </style>
  </defs>
  <g>
    <rect class="cls-1" x="215.36" y="25.32" width="2.84" height="21.27"/>
    <rect class="cls-1" x="219.81" y="26.91" width="2.84" height="12.32" transform="translate(41.42 166.12) rotate(-45)"/>
    <rect class="cls-1" x="220.04" y="35.89" width="2.84" height="11.67" transform="translate(35.36 168.82) rotate(-45)"/>
    <rect class="cls-1" x="214.45" y="17.67" width="4.67" height="4.67" transform="translate(77.64 -147.43) rotate(45)"/>
  </g>
  <g>
    <g>
      <rect class="cls-1" x="184.3" y="16.7" width="2.84" height="29.88"/>
      <rect class="cls-1" x="200.15" y="16.7" width="2.84" height="29.88"/>
      <rect class="cls-1" x="192.23" y="23.69" width="2.84" height="22.43" transform="translate(32.04 147.15) rotate(-45)"/>
      <rect class="cls-1" x="182.34" y="33.48" width="22.43" height="2.84" transform="translate(32.01 147.09) rotate(-45)"/>
    </g>
    <rect class="cls-1" x="191.27" y="22.34" width="4.67" height="4.67" transform="translate(74.15 -129.67) rotate(45)"/>
  </g>
  <g>
    <path class="cls-1" d="M239.09,46.59h-2.84v-29.33l2.43-1,11.85,11.85-1.01,2.43-10.42-.02v16.08ZM239.09,27.66h6.99s-6.99-6.98-6.99-6.98v6.98Z"/>
    <polygon class="cls-1" points="239.9 19.4 236.24 19.4 236.24 16.24 238.66 16.24 239.9 19.4"/>
    <rect class="cls-1" x="242.26" y="27.71" width="2.84" height="12.1" transform="translate(47.5 182.19) rotate(-45)"/>
    <rect class="cls-1" x="244.65" y="40.95" width="4.67" height="4.67" transform="translate(102.95 -161.96) rotate(45)"/>
  </g>
  <g>
    <rect class="cls-1" x="81.9" y="17.53" width="4.67" height="4.67" transform="translate(38.72 -53.74) rotate(45)"/>
    <polygon class="cls-1" points="75.75 36.64 73.74 34.63 83.36 25 85.37 25 94.91 34.54 92.9 36.54 84.37 28.02 75.75 36.64"/>
    <rect class="cls-1" x="82.9" y="26.01" width="2.84" height="20.58"/>
  </g>
  <g>
    <rect class="cls-1" x="116.63" y="16.7" width="2.84" height="29.88"/>
    <rect class="cls-1" x="100.86" y="16.7" width="2.84" height="29.88"/>
    <rect class="cls-1" x="108.6" y="24.41" width="2.84" height="22.97" transform="translate(6.84 88.31) rotate(-45)"/>
    <rect class="cls-1" x="108.3" y="20.07" width="10.82" height="2.84" transform="translate(18.11 86.7) rotate(-45)"/>
  </g>
  <g>
    <polygon class="cls-1" points="137.48 36.41 135.47 34.4 140.23 29.64 130.76 20.17 132.77 18.16 144.24 29.64 137.48 36.41"/>
    <polygon class="cls-1" points="139.73 47.59 126.63 34.49 133.85 27.26 135.86 29.27 130.64 34.49 141.74 45.58 139.73 47.59"/>
  </g>
  <g>
    <path class="cls-1" d="M163.23,45.79c-7.14,0-12.95-5.81-12.95-12.95s5.81-12.95,12.95-12.95,12.95,5.81,12.95,12.95-5.81,12.95-12.95,12.95ZM163.23,22.74c-5.57,0-10.11,4.53-10.11,10.11s4.53,10.11,10.11,10.11,10.11-4.53,10.11-10.11-4.53-10.11-10.11-10.11Z"/>
    <rect class="cls-1" x="147.33" y="31.04" width="32.42" height="2.84" transform="translate(54.99 159.02) rotate(-60.61)"/>
  </g>
</svg>